# Blender v3.2.2 OBJ File: ''
# www.blender.org
mtllib Viper.mtl
o Cube
v 1.000000 1.000000 -1.000000
v 1.384600 -1.000000 -1.581945
v 1.000000 1.000000 1.000000
v 1.384600 -1.000000 0.808138
v -1.000000 1.000000 -1.000000
v -1.384600 -1.000000 -1.581945
v -1.000000 1.000000 1.000000
v -1.384600 -1.000000 0.808138
v -1.384600 -1.000000 6.458027
v -1.000000 1.000000 4.828897
v 1.000000 1.000000 4.828897
v 1.384600 -1.000000 6.458027
vt 0.625000 0.500000
vt 0.875000 0.500000
vt 0.875000 0.750000
vt 0.625000 0.750000
vt 0.375000 0.750000
vt 0.625000 0.750000
vt 0.375000 0.750000
vt 0.375000 0.000000
vt 0.625000 0.000000
vt 0.625000 0.250000
vt 0.375000 0.250000
vt 0.125000 0.500000
vt 0.375000 0.500000
vt 0.125000 0.750000
vt 0.625000 1.000000
vt 0.375000 1.000000
vt 0.375000 0.000000
vt 0.625000 0.000000
vt 0.125000 0.750000
vt 0.875000 0.750000
vn 0.0000 1.0000 0.0000
vn 0.9820 0.1888 0.0000
vn -0.9820 0.1888 0.0000
vn 0.0000 -1.0000 0.0000
vn 0.0000 0.2794 -0.9602
vn 0.0000 0.6316 0.7753
usemtl Material
s off
f 1/1/1 5/2/1 7/3/1 3/4/1
f 4/5/2 3/4/2 11/6/2 12/7/2
f 8/8/3 7/9/3 5/10/3 6/11/3
f 6/12/4 2/13/4 4/5/4 8/14/4
f 2/13/2 1/1/2 3/4/2 4/5/2
f 6/11/5 5/10/5 1/1/5 2/13/5
f 12/7/6 11/6/6 10/15/6 9/16/6
f 7/9/3 8/8/3 9/17/3 10/18/3
f 8/14/4 4/5/4 12/7/4 9/19/4
f 3/4/1 7/3/1 10/20/1 11/6/1
